<svg id="Layer_1" data-name="Layer 1" xmlns="http://www.w3.org/2000/svg" viewBox="0 0 200.45 232.36"><path d="M383.45,435c11.58-5.14,30-15.45,42.64-34.48a91.54,91.54,0,0,0,15.19-52.7,133,133,0,0,0-12.65-53.41,6.26,6.26,0,0,1,2.28-7.92,42.28,42.28,0,0,0-24.36-77.75v0a42.28,42.28,0,0,0-37.1,24.76,2.26,2.26,0,0,1-3,1.11,39.88,39.88,0,0,0-32.95,0,2.27,2.27,0,0,1-3-1.11,42.27,42.27,0,1,0-61.46,53,6.27,6.27,0,0,1,2.28,7.92c-2.5,5.34-3.71,8.45-7.12,18.69-.67,2-1,3.37-1.66,5.9a128.94,128.94,0,0,0-3.22,18.32s-.57,5.5-.67,10.51c-1,46.43,35.59,74.57,35.59,74.57,27.51,21.19,60.23,21.22,81.19,15.32A77.81,77.81,0,0,0,383.45,435Zm22.88-220.14a36.14,36.14,0,0,1,21.24,66.45,12.4,12.4,0,0,0-4.49,15.7,126.9,126.9,0,0,1,12.05,51,85.18,85.18,0,1,1-170.3,0,126.9,126.9,0,0,1,12.05-51,12.4,12.4,0,0,0-4.49-15.7A36.14,36.14,0,1,1,325,236a8.4,8.4,0,0,0,11.11,4.17,33.72,33.72,0,0,1,27.84,0A8.4,8.4,0,0,0,375,236a36.17,36.17,0,0,1,31.32-21.17Z" transform="translate(-249.78 -208.73)"/><path d="M316.54,308.53a6.42,6.42,0,1,0-1.88,4.56A6.46,6.46,0,0,0,316.54,308.53Z" transform="translate(-249.78 -208.73)"/><path d="M396.22,308.53a6.42,6.42,0,1,0-1.87,4.56A6.43,6.43,0,0,0,396.22,308.53Z" transform="translate(-249.78 -208.73)"/><path d="M349.14,336a27.62,27.62,0,0,0-14.08,4.35,15.79,15.79,0,0,0,0,26.59,27.59,27.59,0,0,0,11.83,4.2v16.32A36,36,0,0,1,321.74,374a3.07,3.07,0,0,0-4.81,3.8,42,42,0,0,0,12.51,10.62,36.08,36.08,0,0,0,7.62,24.43,16.39,16.39,0,0,0,25.8,0,36.1,36.1,0,0,0,7.64-24.43A42.23,42.23,0,0,0,383,377.77a3,3,0,0,0,.66-2.26,3.09,3.09,0,0,0-1.14-2.07,3,3,0,0,0-2.27-.64,3.08,3.08,0,0,0-2.06,1.17A36,36,0,0,1,353,387.47V371.15a27.58,27.58,0,0,0,11.87-4.2,15.79,15.79,0,0,0,0-26.59A27.71,27.71,0,0,0,349.14,336Zm.17,6.13h0a21.53,21.53,0,0,1,12.24,3.4,9.65,9.65,0,0,1,0,16.27,21.47,21.47,0,0,1-23.19,0,9.65,9.65,0,0,1,0-16.27,21.57,21.57,0,0,1,10.94-3.4Zm-13.83,49.05h0a42.1,42.1,0,0,0,28.94,0A30,30,0,0,1,358,409.06a10.26,10.26,0,0,1-16.15,0,30,30,0,0,1-6.4-17.88Z" transform="translate(-249.78 -208.73)"/></svg>