<svg id="Layer_1" data-name="Layer 1" xmlns="http://www.w3.org/2000/svg" viewBox="0 0 560 560"><defs><style>.cls-1{fill-rule:evenodd;}</style></defs><path class="cls-1" d="M532.52,532.7a258.13,258.13,0,1,1,75.6-182.52,256.43,256.43,0,0,1-75.6,182.52M548,152.19a280,280,0,0,0-396,396,280,280,0,0,0,396-396M457.05,420.36H243.8a10.94,10.94,0,0,0,0,21.88H457.05a10.94,10.94,0,0,0,0-21.88M309.42,286.77a10.94,10.94,0,1,0-21.87,0,27,27,0,1,1-54,0,10.94,10.94,0,0,0-21.88,0,48.88,48.88,0,1,0,97.76,0m168-10.94a10.94,10.94,0,0,0-10.94,10.94,27,27,0,1,1-54,0,10.94,10.94,0,1,0-21.87,0,48.88,48.88,0,0,0,97.76,0,10.94,10.94,0,0,0-10.94-10.94" transform="translate(-70 -70.18)"/></svg>