<svg xmlns="http://www.w3.org/2000/svg" viewBox="0 0 200.45 232.39"><defs><style>.cls-1{fill:#ce9e6f;}.cls-2{fill:#4c3929;}.cls-3{fill:none;}.cls-4{fill:#231f20;}.cls-5{fill:#fc81a4;}</style></defs><g id="Layer_2" data-name="Layer 2"><path class="cls-1" d="M383.5,435c11.6-5.1,30-15.5,42.6-34.5a99.92,99.92,0,0,0,7.2-13,90.21,90.21,0,0,0,8-39.7,134.88,134.88,0,0,0-12.6-53.4,6.22,6.22,0,0,1,2.3-7.9,42.22,42.22,0,0,0-24.3-77.7h0a42.56,42.56,0,0,0-22.1,7.1,41.57,41.57,0,0,0-15,17.7,2.31,2.31,0,0,1-3,1.1,39.38,39.38,0,0,0-32.9,0,2.31,2.31,0,0,1-3-1.1,42.3,42.3,0,1,0-61.5,53,6.33,6.33,0,0,1,2.3,7.9c-2.5,5.3-3.7,8.5-7.1,18.7-.7,2-1,3.4-1.7,5.9a132.77,132.77,0,0,0-3.2,18.3s-.6,5.5-.7,10.5c-1,46.4,35.6,74.6,35.6,74.6,27.5,21.2,60.2,21.2,81.2,15.3C378.8,436.8,381.5,435.8,383.5,435Zm22.8-220.1" transform="translate(-249.9 -208.78)"/></g><g id="Layer_3" data-name="Layer 3"><path class="cls-2" d="M352.8,371.1a28.34,28.34,0,0,0,11.9-4.2,15.87,15.87,0,0,0,7.3-13.3,15.64,15.64,0,0,0-7.3-13.3,27.22,27.22,0,0,0-15.6-4.3h0a27.14,27.14,0,0,0-14.1,4.3,15.87,15.87,0,0,0-7.3,13.3,15.64,15.64,0,0,0,7.3,13.3,27.92,27.92,0,0,0,11.8,4.2" transform="translate(-249.9 -208.78)"/></g><g id="Layer_4" data-name="Layer 4"><path class="cls-3" d="M335.5,391.2a30.64,30.64,0,0,0,6.3,17.9,10.23,10.23,0,0,0,8.1,3.9,10.09,10.09,0,0,0,8.1-3.9,29.85,29.85,0,0,0,6.4-17.9A42.22,42.22,0,0,1,335.5,391.2Z" transform="translate(-249.9 -208.78)"/><path class="cls-4" d="M329.3,388.3l17.5-.9" transform="translate(-249.9 -208.78)"/><path class="cls-5" d="M346.8,387.4l-17.5.9a36.29,36.29,0,0,0,7.6,24.4,16.36,16.36,0,0,0,25.8,0,35.77,35.77,0,0,0,7.6-24.4l-17.5-.9A23.28,23.28,0,0,1,346.8,387.4Z" transform="translate(-249.9 -208.78)"/><path class="cls-4" d="M352.8,387.4l17.5.9" transform="translate(-249.9 -208.78)"/></g><g id="Layer_1" data-name="Layer 1"><path class="cls-4" d="M383.5,435c11.6-5.1,30-15.5,42.6-34.5a99.92,99.92,0,0,0,7.2-13,90.21,90.21,0,0,0,8-39.7,134.88,134.88,0,0,0-12.6-53.4,6.22,6.22,0,0,1,2.3-7.9,42.22,42.22,0,0,0-24.3-77.7h0a42.56,42.56,0,0,0-22.1,7.1,41.57,41.57,0,0,0-15,17.7,2.31,2.31,0,0,1-3,1.1,39.38,39.38,0,0,0-32.9,0,2.31,2.31,0,0,1-3-1.1,42.3,42.3,0,1,0-61.5,53,6.33,6.33,0,0,1,2.3,7.9c-2.5,5.3-3.7,8.5-7.1,18.7-.7,2-1,3.4-1.7,5.9a132.77,132.77,0,0,0-3.2,18.3s-.6,5.5-.7,10.5c-1,46.4,35.6,74.6,35.6,74.6,27.5,21.2,60.2,21.2,81.2,15.3C378.8,436.8,381.5,435.8,383.5,435Zm22.8-220.1a36.12,36.12,0,0,1,21.3,66.4,12.49,12.49,0,0,0-4.5,15.7,128.49,128.49,0,0,1,12.1,51A85.13,85.13,0,1,1,265,348a127.09,127.09,0,0,1,12-51,12.49,12.49,0,0,0-4.5-15.7,36.42,36.42,0,0,1-16.2-25.7,36.12,36.12,0,0,1,37-40.7,36.17,36.17,0,0,1,31.6,21.2,8.42,8.42,0,0,0,11.1,4.2,33.7,33.7,0,0,1,27.8,0,8.38,8.38,0,0,0,11.1-4.1,36.7,36.7,0,0,1,31.4-21.3Z" transform="translate(-249.9 -208.78)"/><path class="cls-4" d="M316.5,308.5a6.78,6.78,0,0,0-1.9-4.6A6.42,6.42,0,0,0,310,302a6.6,6.6,0,0,0-4.6,1.9,6.42,6.42,0,0,0-1.9,4.6,6.78,6.78,0,0,0,1.9,4.6A6.42,6.42,0,0,0,310,315a6.6,6.6,0,0,0,4.6-1.9A6.19,6.19,0,0,0,316.5,308.5Z" transform="translate(-249.9 -208.78)"/><path class="cls-4" d="M396.2,308.5a6.6,6.6,0,0,0-1.9-4.6,6.42,6.42,0,0,0-4.6-1.9,6.6,6.6,0,0,0-4.6,1.9,6.42,6.42,0,0,0-1.9,4.6,6.78,6.78,0,0,0,1.9,4.6,6.42,6.42,0,0,0,4.6,1.9,6.49,6.49,0,0,0,6.5-6.5Z" transform="translate(-249.9 -208.78)"/><path class="cls-4" d="M349.1,336a27.14,27.14,0,0,0-14.1,4.3,15.87,15.87,0,0,0-7.3,13.3,15.64,15.64,0,0,0,7.3,13.3,27.92,27.92,0,0,0,11.8,4.2v16.3a35.89,35.89,0,0,1-25.2-13.5,3.06,3.06,0,1,0-4.8,3.8,42.52,42.52,0,0,0,12.5,10.6,36.29,36.29,0,0,0,7.6,24.4,16.36,16.36,0,0,0,25.8,0,35.77,35.77,0,0,0,7.6-24.4,42.52,42.52,0,0,0,12.5-10.6,3,3,0,0,0,.7-2.3,3.33,3.33,0,0,0-1.1-2.1,3.1,3.1,0,0,0-2.3-.6,3,3,0,0,0-2.1,1.2,35.89,35.89,0,0,1-25.2,13.5V371.1a28.34,28.34,0,0,0,11.9-4.2,15.87,15.87,0,0,0,7.3-13.3,15.64,15.64,0,0,0-7.3-13.3,27.22,27.22,0,0,0-15.6-4.3Zm.2,6.1h0a21.86,21.86,0,0,1,12.2,3.4,9.61,9.61,0,0,1,4.5,8.1,9.48,9.48,0,0,1-4.5,8.1,21.49,21.49,0,0,1-23.2,0,9.61,9.61,0,0,1-4.5-8.1,9.48,9.48,0,0,1,4.5-8.1,22.55,22.55,0,0,1,11-3.4Zm-13.8,49.1h0a42.22,42.22,0,0,0,28.9,0,29.85,29.85,0,0,1-6.4,17.9,10.09,10.09,0,0,1-8.1,3.9,10.23,10.23,0,0,1-8.1-3.9,30.64,30.64,0,0,1-6.3-17.9Z" transform="translate(-249.9 -208.78)"/></g></svg>