<svg id="Layer_1" data-name="Layer 1" xmlns="http://www.w3.org/2000/svg" viewBox="0 0 487.2 487.2"><defs><style>.cls-1{fill-rule:evenodd;}</style></defs><path d="M350,103.61c-134.32,0-243.6,109.27-243.6,243.6S215.68,590.81,350,590.81s243.6-109.28,243.6-243.6S484.32,103.61,350,103.61ZM350,574C224.94,574,123.2,472.27,123.2,347.2S224.94,120.4,350,120.4,576.8,222.14,576.8,347.2,475.06,574,350,574Zm0-176.4a140.35,140.35,0,0,0-120.73,69.5,8.4,8.4,0,0,0,14.52,8.46,122.8,122.8,0,0,1,212.42,0,8.4,8.4,0,0,0,14.51-8.47A140.35,140.35,0,0,0,350,397.61Z" transform="translate(-106.4 -103.61)"/><path class="cls-1" d="M256.67,261.33a56,56,0,0,0-56,56,9.33,9.33,0,0,0,18.66,0,37.34,37.34,0,0,1,74.67,0,9.34,9.34,0,0,0,18.67,0,56,56,0,0,0-56-56Z" transform="translate(-106.4 -103.61)"/><path class="cls-1" d="M443.33,261.33a56,56,0,0,0-56,56,9.33,9.33,0,1,0,18.66,0,37.34,37.34,0,0,1,74.67,0,9.34,9.34,0,0,0,18.67,0,56,56,0,0,0-56-56Z" transform="translate(-106.4 -103.61)"/></svg>