<svg id="Layer_1" data-name="Layer 1" xmlns="http://www.w3.org/2000/svg" viewBox="0 0 522.66 522.66"><defs><style>.cls-1{fill-rule:evenodd;}</style></defs><path class="cls-1" d="M350,611.33c144.33,0,261.33-117,261.33-261.33S494.33,88.67,350,88.67,88.67,205.67,88.67,350,205.67,611.33,350,611.33Zm0-18.66C484,592.67,592.67,484,592.67,350S484,107.33,350,107.33,107.33,216,107.33,350,216,592.67,350,592.67ZM256.67,294a56,56,0,0,0-56,56,9.33,9.33,0,0,0,18.66,0A37.34,37.34,0,1,1,294,350a9.34,9.34,0,0,0,18.67,0,56,56,0,0,0-56-56Zm186.66,0a56,56,0,0,0-56,56A9.34,9.34,0,0,0,406,350a37.33,37.33,0,1,1,74.66,0,9.34,9.34,0,0,0,18.67,0,56,56,0,0,0-56-56ZM193.59,454.16a222.69,222.69,0,0,0,30.75,33.49c34.46,30.58,76.36,49,125.66,49s91.2-18.44,125.66-49a223.22,223.22,0,0,0,30.75-33.49,151.07,151.07,0,0,0,10.42-15.64,9.33,9.33,0,1,0-16.33-9A132.78,132.78,0,0,1,491.44,443a205.09,205.09,0,0,1-28.17,30.68C432,501.43,394.35,518,350,518s-82-16.57-113.27-44.31A204.56,204.56,0,0,1,208.56,443a132.78,132.78,0,0,1-9.06-13.53,9.34,9.34,0,0,0-16.34,9,151.6,151.6,0,0,0,10.43,15.64Z" transform="translate(-88.67 -88.67)"/></svg>